PathFileType	4	(X/Y/Z)	/Users/itak/Documents/Research/Walk-IL/dataset/trc/00319_00011.trc
DataRate	CameraRate	NumFrames	NumMarkers	Units	OrigDataRate	OrigDataStartFrame	OrigNumFrames
100.000000	100.000000	4	57	mm	100.000000	218	583
Frame#	Time	RPSI			LPSI			L3			STRN			T10			C7			CLAV			RBAK			LBAK			LSHO			LUPA			LAEL			LAOL			LWPS			LFRA			LHPS			RSHO			RUPA			RAEL			RAOL			RWTS			RWPS			RFRA			RIFD			RHTS			RHPS			RBHD			LFHD			RFHD			LBHD			LHIP			RASI			LASI			LKNE			LTHI			LANK			LTIP			LTOE			LMT1			LMT5			LHEE			RKNE			RTHI			RANK			RTIP			RTOE			RMT5			RHEE			RHIP			RMT1			LWTS			LIFD			LHTS			*53			*54			*55			*56			
		X1	Y1	Z1	X2	Y2	Z2	X3	Y3	Z3	X4	Y4	Z4	X5	Y5	Z5	X6	Y6	Z6	X7	Y7	Z7	X8	Y8	Z8	X9	Y9	Z9	X10	Y10	Z10	X11	Y11	Z11	X12	Y12	Z12	X13	Y13	Z13	X14	Y14	Z14	X15	Y15	Z15	X16	Y16	Z16	X17	Y17	Z17	X18	Y18	Z18	X19	Y19	Z19	X20	Y20	Z20	X21	Y21	Z21	X22	Y22	Z22	X23	Y23	Z23	X24	Y24	Z24	X25	Y25	Z25	X26	Y26	Z26	X27	Y27	Z27	X28	Y28	Z28	X29	Y29	Z29	X30	Y30	Z30	X31	Y31	Z31	X32	Y32	Z32	X33	Y33	Z33	X34	Y34	Z34	X35	Y35	Z35	X36	Y36	Z36	X37	Y37	Z37	X38	Y38	Z38	X39	Y39	Z39	X40	Y40	Z40	X41	Y41	Z41	X42	Y42	Z42	X43	Y43	Z43	X44	Y44	Z44	X45	Y45	Z45	X46	Y46	Z46	X47	Y47	Z47	X48	Y48	Z48	X49	Y49	Z49	X50	Y50	Z50	X51	Y51	Z51	X52	Y52	Z52	X53	Y53	Z53	X54	Y54	Z54	X55	Y55	Z55	X56	Y56	Z56	X57	Y57	Z57	

219	2.18	-1545.780517578125	985.0142211914062	60.09953689575195	-1547.058837890625	987.7449951171875	-70.03825378417969	-1549.281494140625	1044.434448242188	0.3081691861152649	-1320.604125976562	1210.471313476562	-18.88769149780273	-1563.571533203125	1166.390380859375	-10.10756969451904	-1509.46826171875	1412.217163085938	-30.499755859375	-1358.295043945312	1336.031494140625	-24.68247985839844	-1564.729248046875	1277.968017578125	41.6186408996582	-1520.487426757812	1373.327758789062	-132.362060546875	-1432.484497070312	1380.107788085938	-186.7462615966797	-1453.600708007812	1261.26904296875	-255.8790130615234	-1437.062744140625	1055.909423828125	-265.3945922851562	-1504.699462890625	1044.07421875	-215.6588897705078	-1384.441528320312	799.6021728515625	-270.6358642578125	-1422.3427734375	951.0156860351562	-270.1167907714844	-1388.289794921875	729.040771484375	-264.466064453125	-1447.544067382812	1393.744262695312	132.5903625488281	-1458.692626953125	1329.653930664062	198.8783416748047	-1451.829223632812	1060.358154296875	234.0855255126953	-1504.889892578125	1053.872314453125	155.3260955810547	-1356.201293945312	828.1105346679688	173.6334075927734	-1383.25537109375	814.2962646484375	243.0851135253906	-1427.015014648438	991.8893432617188	237.7900238037109	-1344.095825195312	654.1607666015625	188.1156921386719	-1329.670776367188	726.4028930664062	185.7190704345703	-1372.360107421875	730.3096923828125	239.6667785644531	-1484.447631835938	1596.883911132812	46.86437225341797	-1317.0625	1629.024047851562	-75.00885009765625	-1325.593383789062	1630.185913085938	25.17378997802734	-1496.929809570312	1585.509521484375	-97.21879577636719	-1466.004516601562	926.1027221679688	-176.6383666992188	-1361.697875976562	946.4758911132812	124.1369552612305	-1342.998413085938	944.0048828125	-114.8526306152344	-1423.660888671875	461.8509521484375	-165.30712890625	-1420.90087890625	601.791748046875	-173.0841827392578	-1559.039184570312	51.47158813476562	-165.2536468505859	-1491.13232421875	251.3112487792969	-175.9042663574219	-1355.749633789062	45.77300643920898	-99.21566772460938	-1425.489868164062	33.16267395019531	-60.05546188354492	-1432.49609375	47.05958557128906	-173.6744995117188	-1595.524047851562	46.59759521484375	-98.8970947265625	-1454.845581054688	452.0450439453125	123.0185165405273	-1408.968627929688	710.7178955078125	162.1047821044922	-1558.146118164062	53.6651496887207	70.62530517578125	-1459.506591796875	331.943115234375	103.1004409790039	-1363.62548828125	45.08695983886719	26.55156898498535	-1457.415893554688	41.96690368652344	93.27765655517578	-1607.436889648438	53.3290901184082	21.72507476806641	-1469.665283203125	922.5512084960938	167.4972839355469	-1417.633544921875	40.19153213500977	-17.35755729675293	-1344.538208007812	812.5673217773438	-211.6736602783203	-1346.261840820312	650.9010009765625	-207.6819152832031	-1336.283813476562	732.2200317382812	-228.9338684082031	nan	nan	nan	nan	nan	nan	nan	nan	nan	nan	nan	nan	
220	2.19	-1544.841918945312	984.747314453125	61.27204513549805	-1546.245971679688	987.315185546875	-68.94211578369141	-1548.377075195312	1044.237915039062	1.606724262237549	-1319.320556640625	1210.02001953125	-17.93718528747559	-1562.336303710938	1166.124633789062	-8.498798370361328	-1508.0361328125	1411.912231445312	-29.09502983093262	-1356.921752929688	1335.594360351562	-23.68117141723633	-1563.182983398438	1277.6953125	43.19470596313477	-1519.387573242188	1373.05078125	-130.9138336181641	-1431.477294921875	1379.735717773438	-185.5115661621094	-1452.996459960938	1260.929443359375	-254.5821533203125	-1436.933959960938	1055.52880859375	-264.0270080566406	-1504.454711914062	1043.865600585938	-214.0890350341797	-1384.575561523438	799.1473999023438	-269.1206970214844	-1422.373413085938	950.5936889648438	-268.6983642578125	-1388.394775390625	728.5782470703125	-262.7982482910156	-1445.69482421875	1393.471801757812	133.8240966796875	-1456.671997070312	1329.437744140625	200.19970703125	-1449.84033203125	1060.191162109375	235.6084747314453	-1503.221313476562	1053.6611328125	157.0555725097656	-1354.482543945312	827.8729858398438	174.9900970458984	-1381.389526367188	814.0932006835938	244.5868682861328	-1425.06201171875	991.6627197265625	239.2738189697266	-1342.365966796875	653.9986572265625	189.5229187011719	-1327.965209960938	726.0662841796875	187.0190887451172	-1370.511474609375	730.1259765625	241.1370544433594	-1482.763427734375	1596.5224609375	47.98222351074219	-1315.79052734375	1628.51318359375	-74.59590911865234	-1323.996337890625	1629.875366210938	25.66597175598145	-1495.7216796875	1584.923583984375	-96.09832000732422	-1465.27197265625	925.6317749023438	-175.5451507568359	-1360.833740234375	946.0801391601562	125.2730407714844	-1342.28759765625	943.5636596679688	-113.7166290283203	-1419.24853515625	461.3011169433594	-163.9794158935547	-1417.52783203125	601.1558837890625	-172.0285186767578	-1558.9365234375	51.70980453491211	-165.2500457763672	-1488.734375	251.1744537353516	-175.2177124023438	-1355.69970703125	45.73103713989258	-99.22103118896484	-1425.500244140625	33.13358688354492	-60.07732772827148	-1432.465454101562	47.06623077392578	-173.6499481201172	-1595.313354492188	46.91960144042969	-98.83656311035156	-1454.372680664062	451.6872863769531	123.725700378418	-1407.997314453125	710.196044921875	163.0433349609375	-1558.23193359375	53.56342697143555	70.6373291015625	-1459.123046875	331.5705261230469	103.5535354614258	-1363.650512695312	45.09314346313477	26.51155662536621	-1457.442626953125	41.9673957824707	93.25571441650391	-1607.541870117188	53.22257995605469	21.76980018615723	-1468.83984375	922.2915649414062	168.6832733154297	-1417.692138671875	40.14025497436523	-17.3865909576416	-1344.542846679688	812.2239990234375	-210.2469940185547	-1346.254760742188	650.42138671875	-206.1165313720703	-1336.237182617188	731.8060913085938	-227.3769226074219	nan	nan	nan	nan	nan	nan	nan	nan	nan	nan	nan	nan	
221	2.2	-1543.951782226562	984.4194946289062	62.40966033935547	-1545.445556640625	986.7539672851562	-67.88113403320312	-1547.51025390625	1043.968627929688	2.85642147064209	-1318.022338867188	1209.506713867188	-16.99489784240723	-1561.109375	1165.7822265625	-6.954916000366211	-1506.602661132812	1411.5234375	-27.74489974975586	-1355.550170898438	1335.076904296875	-22.68330383300781	-1561.657958984375	1277.312255859375	44.69044876098633	-1518.2744140625	1372.696044921875	-129.5166015625	-1430.428344726562	1379.286010742188	-184.2932739257812	-1452.326171875	1260.50146484375	-253.2957305908203	-1436.766235351562	1055.057495117188	-262.6421508789062	-1504.19677734375	1043.5771484375	-212.5355529785156	-1384.67529296875	798.5977783203125	-267.5282592773438	-1422.373779296875	950.0802612304688	-267.2471313476562	-1388.484008789062	728.0233764648438	-261.0541381835938	-1443.8984375	1393.092895507812	135.0373382568359	-1454.711181640625	1329.12646484375	201.485107421875	-1447.86279296875	1059.897216796875	237.1135406494141	-1501.534545898438	1053.33154296875	158.7377319335938	-1352.7001953125	827.5535888671875	176.3428039550781	-1379.468017578125	813.7942504882812	246.0821533203125	-1423.1181640625	991.356201171875	240.7581329345703	-1340.492431640625	653.7570190429688	190.9167327880859	-1326.166748046875	725.6728515625	188.3219757080078	-1368.5576171875	729.8424682617188	242.5744934082031	-1481.089233398438	1596.05859375	49.08037948608398	-1314.530883789062	1627.91748046875	-74.16477203369141	-1322.416870117188	1629.476440429688	26.17425537109375	-1494.5439453125	1584.274536132812	-94.97554779052734	-1464.536743164062	925.0189819335938	-174.4775695800781	-1360.016723632812	945.6608276367188	126.3900833129883	-1341.578247070312	942.9915771484375	-112.6106796264648	-1414.68212890625	460.75	-162.57861328125	-1414.013916015625	600.4395141601562	-171.0302124023438	-1558.799072265625	52.02819442749023	-165.2545318603516	-1486.2919921875	251.1047058105469	-174.5378112792969	-1355.657592773438	45.69495010375977	-99.23227691650391	-1425.5224609375	33.0980110168457	-60.10545349121094	-1432.43994140625	47.07818222045898	-173.6381225585938	-1595.086303710938	47.37444305419922	-98.77429962158203	-1453.828857421875	451.3123779296875	124.4823760986328	-1407.073852539062	709.6497802734375	163.9625701904297	-1558.310546875	53.4625244140625	70.64803314208984	-1458.664916992188	331.1552734375	103.9856414794922	-1363.679321289062	45.0997314453125	26.46818923950195	-1457.473266601562	41.96862030029297	93.23686218261719	-1607.65869140625	53.10348892211914	21.81099891662598	-1468.002197265625	922.0089111328125	169.8245697021484	-1417.760986328125	40.08393096923828	-17.41524505615234	-1344.809326171875	811.6743774414062	-208.7383728027344	-1346.2412109375	649.85107421875	-204.4712371826172	-1336.182006835938	731.3009643554688	-225.7388153076172	nan	nan	nan	nan	nan	nan	nan	nan	nan	nan	nan	nan	
222	2.21	-1543.109130859375	984.0257568359375	63.50568008422852	-1544.665161132812	986.059814453125	-66.85146331787109	-1546.691650390625	1043.615234375	4.057732105255127	-1316.717651367188	1208.915771484375	-16.0665225982666	-1559.892456054688	1165.369018554688	-5.497567176818848	-1505.168823242188	1411.05029296875	-26.45381164550781	-1354.175048828125	1334.47412109375	-21.68898582458496	-1560.167724609375	1276.825927734375	46.10811614990234	-1517.141357421875	1372.26513671875	-128.1734161376953	-1429.338256835938	1378.754028320312	-183.0960693359375	-1451.590576171875	1259.981201171875	-252.0254058837891	-1436.558959960938	1054.492309570312	-261.24365234375	-1503.921264648438	1043.205200195312	-210.9997711181641	-1384.743041992188	797.9498291015625	-265.864990234375	-1422.339599609375	949.47216796875	-265.7647705078125	-1388.565185546875	727.3748779296875	-259.2421875	-1442.157836914062	1392.60498046875	136.2307739257812	-1452.817016601562	1328.713500976562	202.7311553955078	-1445.901489257812	1059.470825195312	238.6017150878906	-1499.829223632812	1052.873901367188	160.3696746826172	-1350.852416992188	827.139892578125	177.6898040771484	-1377.478637695312	813.395751953125	247.5576477050781	-1421.181884765625	990.9627685546875	242.2398529052734	-1338.4892578125	653.4028930664062	192.2962036132812	-1324.250610351562	725.2408447265625	189.6161499023438	-1366.493896484375	729.4471435546875	243.9790802001953	-1479.423461914062	1595.499755859375	50.15323638916016	-1313.286743164062	1627.244262695312	-73.70958709716797	-1320.852783203125	1628.992065429688	26.69470977783203	-1493.393188476562	1583.555053710938	-93.85201263427734	-1463.795532226562	924.2587890625	-173.4376068115234	-1359.222534179688	945.2274169921875	127.4856643676758	-1340.876342773438	942.28564453125	-111.5384902954102	-1409.941772460938	460.2175903320312	-161.0785522460938	-1410.326904296875	599.6380004882812	-170.0828552246094	-1558.622802734375	52.47105026245117	-165.2545013427734	-1483.796264648438	251.1384735107422	-173.8562927246094	-1355.627197265625	45.66720199584961	-99.24862670898438	-1425.554321289062	33.05509948730469	-60.14173126220703	-1432.418212890625	47.11171722412109	-173.6400756835938	-1594.856567382812	48.00872039794922	-98.70758819580078	-1453.216918945312	450.9237365722656	125.286003112793	-1406.173217773438	709.0889892578125	164.8595886230469	-1558.3818359375	53.3643798828125	70.65552520751953	-1458.132202148438	330.7030334472656	104.3948364257812	-1363.711303710938	45.10927200317383	26.42220115661621	-1457.508666992188	41.97172927856445	93.22461700439453	-1607.787719726562	52.97668838500977	21.84668159484863	-1467.132568359375	921.7135009765625	170.9120483398438	-1417.840087890625	40.02247619628906	-17.44281196594238	-1345.33349609375	810.9031982421875	-207.1498413085938	-1346.228271484375	649.1874389648438	-202.7503814697266	-1336.126831054688	730.7022705078125	-224.0246887207031	nan	nan	nan	nan	nan	nan	nan	nan	nan	nan	nan	nan	
